<svg width="1094" height="216" viewBox="0 0 1094 216" fill="none" xmlns="http://www.w3.org/2000/svg">
<path d="M95 77V39L131 83H101C97.6863 83 95 80.3137 95 77Z" fill="#0673AE"/>
<path d="M42.4286 43C21 43 21 43 21 73.6604V142.34C21 173 21 173 42.4286 173H55.0978H88H107.571C129 173 129 173 129 142.34V77.3437C129 77.121 128.913 76.8885 128.776 76.7128C102.755 43.33 128.714 77.1274 102.817 43.413C102.628 43.1666 102.318 43 102.007 43H42.4286Z" stroke="#0F96DF" stroke-width="10"/>
<path d="M48 123L103 123" stroke="#0F96DF" stroke-width="10" stroke-linecap="round"/>
<path d="M48 146L103 146" stroke="#0F96DF" stroke-width="10" stroke-linecap="round"/>
<path d="M276.232 88.592C276.232 93.968 274.936 99.008 272.344 103.712C269.848 108.416 265.864 112.208 260.392 115.088C255.016 117.968 248.2 119.408 239.944 119.408H223.096V158H202.936V57.488H239.944C247.72 57.488 254.344 58.832 259.816 61.52C265.288 64.208 269.368 67.904 272.056 72.608C274.84 77.312 276.232 82.64 276.232 88.592ZM239.08 103.136C244.648 103.136 248.776 101.888 251.464 99.392C254.152 96.8 255.496 93.2 255.496 88.592C255.496 78.8 250.024 73.904 239.08 73.904H223.096V103.136H239.08ZM364.705 116.384C364.705 119.264 364.513 121.856 364.129 124.16H305.809C306.289 129.92 308.305 134.432 311.857 137.696C315.409 140.96 319.777 142.592 324.961 142.592C332.449 142.592 337.777 139.376 340.945 132.944H362.689C360.385 140.624 355.969 146.96 349.441 151.952C342.913 156.848 334.897 159.296 325.393 159.296C317.713 159.296 310.801 157.616 304.657 154.256C298.609 150.8 293.857 145.952 290.401 139.712C287.041 133.472 285.361 126.272 285.361 118.112C285.361 109.856 287.041 102.608 290.401 96.368C293.761 90.128 298.465 85.328 304.513 81.968C310.561 78.608 317.521 76.928 325.393 76.928C332.977 76.928 339.745 78.56 345.697 81.824C351.745 85.088 356.401 89.744 359.665 95.792C363.025 101.744 364.705 108.608 364.705 116.384ZM343.825 110.624C343.729 105.44 341.857 101.312 338.209 98.24C334.561 95.072 330.097 93.488 324.817 93.488C319.825 93.488 315.601 95.024 312.145 98.096C308.785 101.072 306.721 105.248 305.953 110.624H343.825ZM399.58 89.888C402.172 86.048 405.724 82.928 410.236 80.528C414.844 78.128 420.076 76.928 425.932 76.928C432.748 76.928 438.892 78.608 444.364 81.968C449.932 85.328 454.3 90.128 457.468 96.368C460.732 102.512 462.364 109.664 462.364 117.824C462.364 125.984 460.732 133.232 457.468 139.568C454.3 145.808 449.932 150.656 444.364 154.112C438.892 157.568 432.748 159.296 425.932 159.296C419.98 159.296 414.748 158.144 410.236 155.84C405.82 153.44 402.268 150.368 399.58 146.624V158H379.42V51.44H399.58V89.888ZM441.772 117.824C441.772 113.024 440.764 108.896 438.748 105.44C436.828 101.888 434.236 99.2 430.972 97.376C427.804 95.552 424.348 94.64 420.604 94.64C416.956 94.64 413.5 95.6 410.236 97.52C407.068 99.344 404.476 102.032 402.46 105.584C400.54 109.136 399.58 113.312 399.58 118.112C399.58 122.912 400.54 127.088 402.46 130.64C404.476 134.192 407.068 136.928 410.236 138.848C413.5 140.672 416.956 141.584 420.604 141.584C424.348 141.584 427.804 140.624 430.972 138.704C434.236 136.784 436.828 134.048 438.748 130.496C440.764 126.944 441.772 122.72 441.772 117.824ZM497.174 89.888C499.766 86.048 503.318 82.928 507.83 80.528C512.438 78.128 517.67 76.928 523.526 76.928C530.342 76.928 536.486 78.608 541.958 81.968C547.526 85.328 551.894 90.128 555.062 96.368C558.326 102.512 559.958 109.664 559.958 117.824C559.958 125.984 558.326 133.232 555.062 139.568C551.894 145.808 547.526 150.656 541.958 154.112C536.486 157.568 530.342 159.296 523.526 159.296C517.574 159.296 512.342 158.144 507.83 155.84C503.414 153.44 499.862 150.368 497.174 146.624V158H477.014V51.44H497.174V89.888ZM539.366 117.824C539.366 113.024 538.358 108.896 536.342 105.44C534.422 101.888 531.83 99.2 528.566 97.376C525.398 95.552 521.942 94.64 518.198 94.64C514.55 94.64 511.094 95.6 507.83 97.52C504.662 99.344 502.07 102.032 500.054 105.584C498.134 109.136 497.174 113.312 497.174 118.112C497.174 122.912 498.134 127.088 500.054 130.64C502.07 134.192 504.662 136.928 507.83 138.848C511.094 140.672 514.55 141.584 518.198 141.584C521.942 141.584 525.398 140.624 528.566 138.704C531.83 136.784 534.422 134.048 536.342 130.496C538.358 126.944 539.366 122.72 539.366 117.824ZM594.768 51.44V158H574.608V51.44H594.768ZM688.846 116.384C688.846 119.264 688.654 121.856 688.27 124.16H629.95C630.43 129.92 632.446 134.432 635.998 137.696C639.55 140.96 643.918 142.592 649.102 142.592C656.59 142.592 661.918 139.376 665.086 132.944H686.83C684.526 140.624 680.11 146.96 673.582 151.952C667.054 156.848 659.038 159.296 649.534 159.296C641.854 159.296 634.942 157.616 628.798 154.256C622.75 150.8 617.998 145.952 614.542 139.712C611.182 133.472 609.502 126.272 609.502 118.112C609.502 109.856 611.182 102.608 614.542 96.368C617.902 90.128 622.606 85.328 628.654 81.968C634.702 78.608 641.662 76.928 649.534 76.928C657.118 76.928 663.886 78.56 669.838 81.824C675.886 85.088 680.542 89.744 683.806 95.792C687.166 101.744 688.846 108.608 688.846 116.384ZM667.966 110.624C667.87 105.44 665.998 101.312 662.35 98.24C658.702 95.072 654.238 93.488 648.958 93.488C643.966 93.488 639.742 95.024 636.286 98.096C632.926 101.072 630.862 105.248 630.094 110.624H667.966ZM823.842 158H803.682L758.034 89.024V158H737.874V57.344H758.034L803.682 126.464V57.344H823.842V158ZM879.188 159.296C871.508 159.296 864.596 157.616 858.452 154.256C852.308 150.8 847.46 145.952 843.908 139.712C840.452 133.472 838.724 126.272 838.724 118.112C838.724 109.952 840.5 102.752 844.052 96.512C847.7 90.272 852.644 85.472 858.884 82.112C865.124 78.656 872.084 76.928 879.764 76.928C887.444 76.928 894.404 78.656 900.644 82.112C906.884 85.472 911.78 90.272 915.332 96.512C918.98 102.752 920.804 109.952 920.804 118.112C920.804 126.272 918.932 133.472 915.188 139.712C911.54 145.952 906.548 150.8 900.212 154.256C893.972 157.616 886.964 159.296 879.188 159.296ZM879.188 141.728C882.836 141.728 886.244 140.864 889.412 139.136C892.676 137.312 895.268 134.624 897.188 131.072C899.108 127.52 900.068 123.2 900.068 118.112C900.068 110.528 898.052 104.72 894.02 100.688C890.084 96.56 885.236 94.496 879.476 94.496C873.716 94.496 868.868 96.56 864.932 100.688C861.092 104.72 859.172 110.528 859.172 118.112C859.172 125.696 861.044 131.552 864.788 135.68C868.628 139.712 873.428 141.728 879.188 141.728ZM959.064 94.784V133.376C959.064 136.064 959.688 138.032 960.936 139.28C962.28 140.432 964.488 141.008 967.56 141.008H976.92V158H964.248C947.256 158 938.76 149.744 938.76 133.232V94.784H929.256V78.224H938.76V58.496H959.064V78.224H976.92V94.784H959.064ZM1065.58 116.384C1065.58 119.264 1065.39 121.856 1065 124.16H1006.68C1007.16 129.92 1009.18 134.432 1012.73 137.696C1016.28 140.96 1020.65 142.592 1025.84 142.592C1033.32 142.592 1038.65 139.376 1041.82 132.944H1063.56C1061.26 140.624 1056.84 146.96 1050.32 151.952C1043.79 156.848 1035.77 159.296 1026.27 159.296C1018.59 159.296 1011.68 157.616 1005.53 154.256C999.484 150.8 994.732 145.952 991.276 139.712C987.916 133.472 986.236 126.272 986.236 118.112C986.236 109.856 987.916 102.608 991.276 96.368C994.636 90.128 999.34 85.328 1005.39 81.968C1011.44 78.608 1018.4 76.928 1026.27 76.928C1033.85 76.928 1040.62 78.56 1046.57 81.824C1052.62 85.088 1057.28 89.744 1060.54 95.792C1063.9 101.744 1065.58 108.608 1065.58 116.384ZM1044.7 110.624C1044.6 105.44 1042.73 101.312 1039.08 98.24C1035.44 95.072 1030.97 93.488 1025.69 93.488C1020.7 93.488 1016.48 95.024 1013.02 98.096C1009.66 101.072 1007.6 105.248 1006.83 110.624H1044.7Z" fill="#333333"/>
</svg>
