<svg width="85" height="85" viewBox="0 0 85 85" fill="none" xmlns="http://www.w3.org/2000/svg">
<path d="M38.9583 0V10.625H46.0417V0H38.9583ZM14.9552 9.9471L9.9471 14.9552L17.4593 22.4674L22.4674 17.4593L14.9552 9.9471ZM70.0448 9.9471L62.5326 17.4593L67.5407 22.4674L75.0529 14.9552L70.0448 9.9471ZM42.5 17.7083C28.8492 17.7083 17.7083 28.8492 17.7083 42.5C17.7083 52.3026 23.5738 60.5704 31.875 64.5801V74.375C31.875 78.2463 35.0871 81.4583 38.9583 81.4583H46.0417C49.9129 81.4583 53.125 78.2463 53.125 74.375V64.5801C61.4262 60.5704 67.2917 52.3026 67.2917 42.5C67.2917 28.8492 56.1508 17.7083 42.5 17.7083ZM42.5 24.7917C52.3234 24.7917 60.2083 32.6766 60.2083 42.5C60.2083 50.2362 55.2689 56.7476 48.4005 59.1777L46.0417 60.0077V74.375H38.9583V60.0077L36.5995 59.1777C29.7311 56.7476 24.7917 50.2362 24.7917 42.5C24.7917 32.6766 32.6766 24.7917 42.5 24.7917ZM0 38.9583V46.0417H10.625V38.9583H0ZM74.375 38.9583V46.0417H85V38.9583H74.375ZM17.4593 62.5325L9.9471 70.0448L14.9552 75.0529L22.4674 67.5407L17.4593 62.5325ZM67.5407 62.5325L62.5326 67.5407L70.0448 75.0529L75.0529 70.0448L67.5407 62.5325Z" fill="#0F96DF"/>
</svg>
